<?xml version="1.0" encoding="UTF-8" standalone="no"?>
<!DOCTYPE svg PUBLIC "-//W3C//DTD SVG 1.1//EN" "http://www.w3.org/Graphics/SVG/1.1/DTD/svg11.dtd">
<svg width="100%" height="100%" viewBox="0 0 366 126" version="1.1" xmlns="http://www.w3.org/2000/svg" xmlns:xlink="http://www.w3.org/1999/xlink" xml:space="preserve" xmlns:serif="http://www.serif.com/" style="fill-rule:evenodd;clip-rule:evenodd;stroke-linejoin:round;stroke-miterlimit:10;">
    <g id="Artboard1" transform="matrix(1,0,0,1,4,8)">
        <rect x="-4" y="-8" width="365.284" height="126" style="fill:none;"/>
        <g transform="matrix(1,0,0,1,-14.5798,-35.1868)">
            <text x="14.58px" y="139.922px" style="font-family:'NotoSans', 'Noto Sans', sans-serif;font-size:16px;">NiO <tspan x="47.631px " y="139.922px ">(</tspan>Ni:</text>
            <text x="78.579px" y="139.922px" style="font-family:'NotoSans-Italic', 'Noto Sans', sans-serif;font-style:italic;font-size:16px;">d</text>
            <text x="87.866px" y="132.922px" style="font-family:'NotoSans', 'Noto Sans', sans-serif;font-size:16px;">8</text>
            <text x="96.7px" y="139.922px" style="font-family:'NotoSans', 'Noto Sans', sans-serif;font-size:16px;">)</text>
        </g>
        <g transform="matrix(1,0,0,1,-14.5798,-12.7656)">
            <text x="91.927px" y="82px" style="font-family:'OpenSans-LightItalic', 'Open Sans Light', sans-serif;font-weight:300;font-style:italic;font-size:24px;fill:rgb(4,50,255);">t</text>
            <text x="99.202px" y="87px" style="font-family:'OpenSans-LightItalic', 'Open Sans Light', sans-serif;font-weight:300;font-style:italic;font-size:16px;fill:rgb(4,50,255);">2g</text>
        </g>
        <g transform="matrix(1,0,0,1,-14.5798,-12.7656)">
            <text x="88.898px" y="31px" style="font-family:'OpenSans-LightItalic', 'Open Sans Light', sans-serif;font-weight:300;font-style:italic;font-size:24px;fill:rgb(192,0,0);">e</text>
            <text x="99.773px" y="36px" style="font-family:'OpenSans-LightItalic', 'Open Sans Light', sans-serif;font-weight:300;font-style:italic;font-size:16px;fill:rgb(192,0,0);">g</text>
        </g>
        <g transform="matrix(0.994308,0,0,1,-13.803,-8.76562)">
            <text x="136.489px" y="70.379px" style="font-family:'LucidaGrande', 'Lucida Grande', sans-serif;font-weight:500;font-size:13.379px;">˜</text>
        </g>
        <g transform="matrix(1,0,0,1,-12.5798,-8.76562)">
            <g transform="matrix(0.994308,0,0,1,0.77645,0)">
                <text x="136.422px" y="73.177px" style="font-family:'OpenSans-Italic', 'Open Sans', sans-serif;font-style:italic;font-size:11.842px;">J</text>
            </g>
            <g transform="matrix(0.994308,0,0,1,0.79576,0)">
                <text x="139.815px" y="66.924px" style="font-family:'LucidaGrande', 'Lucida Grande', sans-serif;font-weight:500;font-size:8.289px;">n<tspan x="145.133px " y="66.924px ">n</tspan></text>
            </g>
            <g transform="matrix(0.994308,0,0,1,0.855959,0)">
                <text x="150.392px" y="66.924px" style="font-family:'LucidaGrande', 'Lucida Grande', sans-serif;font-weight:500;font-size:9.365px;">,</text>
            </g>
            <g transform="matrix(0.994308,0,0,1,0.873844,0)">
                <text x="153.534px" y="66.924px" style="font-family:'LucidaGrande', 'Lucida Grande', sans-serif;font-weight:500;font-size:8.289px;">z</text>
            </g>
        </g>
        <g transform="matrix(1,0,0,1,-14.5798,-8.76562)">
            <g transform="matrix(0.994308,0,0,1,0.796355,0)">
                <text x="139.919px" y="77.262px" style="font-family:'LucidaGrande', 'Lucida Grande', sans-serif;font-weight:500;font-size:8.289px;">1<tspan x="144.721px " y="77.262px ">2</tspan></text>
            </g>
            <g transform="matrix(0.994308,0,0,1,0.850704,0)">
                <text x="162.775px" y="73.31px" style="font-family:'LucidaGrande', 'Lucida Grande', sans-serif;font-weight:500;font-size:13.379px;"><tspan x="162.775px " y="73.31px ">=</tspan></text>
            </g>
        </g>
        <g transform="matrix(1,0,0,1,-28.9206,-10.3462)">
            <g transform="matrix(0.994308,0,0,1,1.18618,0)">
                <text x="208.412px" y="29.71px" style="font-family:'LucidaGrande', 'Lucida Grande', sans-serif;font-weight:500;font-size:11.842px;">d</text>
            </g>
            <g transform="matrix(0.994308,0,0,1,1.22481,0)">
                <text x="215.199px" y="32.946px" style="font-family:'LucidaGrande', 'Lucida Grande', sans-serif;font-weight:500;font-size:8.289px;">z</text>
            </g>
            <g transform="matrix(0.994308,0,0,1,1.24922,0)">
                <text x="219.487px" y="30.24px" style="font-family:'LucidaGrande', 'Lucida Grande', sans-serif;font-weight:500;font-size:7.105px;">2</text>
            </g>
            <g transform="matrix(0.994308,0,0,1,1.32183,0)">
                <text x="232.245px" y="29.71px" style="font-family:'LucidaGrande', 'Lucida Grande', sans-serif;font-weight:500;font-size:11.842px;">d</text>
            </g>
            <g transform="matrix(0.994308,0,0,1,1.36046,0)">
                <text x="239.032px" y="32.946px" style="font-family:'LucidaGrande', 'Lucida Grande', sans-serif;font-weight:500;font-size:8.289px;">x</text>
            </g>
            <g transform="matrix(0.994308,0,0,1,1.38674,0)">
                <text x="243.65px" y="30.24px" style="font-family:'LucidaGrande', 'Lucida Grande', sans-serif;font-weight:500;font-size:7.105px;">2</text>
            </g>
            <g transform="matrix(0.994308,0,0,1,1.41004,0)">
                <text x="247.743px" y="32.946px" style="font-family:'LucidaGrande', 'Lucida Grande', sans-serif;font-weight:500;font-size:8.289px;">y</text>
            </g>
            <g transform="matrix(0.994308,0,0,1,1.43206,0)">
                <text x="251.613px" y="30.24px" style="font-family:'LucidaGrande', 'Lucida Grande', sans-serif;font-weight:500;font-size:7.105px;">2</text>
            </g>
            <g transform="matrix(0.994308,0,0,1,1.50467,0)">
                <text x="264.371px" y="29.71px" style="font-family:'LucidaGrande', 'Lucida Grande', sans-serif;font-weight:500;font-size:11.842px;">d</text>
            </g>
            <g transform="matrix(0.994308,0,0,1,1.5433,0)">
                <text x="271.158px" y="31.718px" style="font-family:'LucidaGrande', 'Lucida Grande', sans-serif;font-weight:500;font-size:8.289px;">x<tspan x="275.802px " y="31.718px ">y</tspan></text>
            </g>
            <g transform="matrix(0.994308,0,0,1,1.64915,0)">
                <text x="289.754px" y="29.71px" style="font-family:'LucidaGrande', 'Lucida Grande', sans-serif;font-weight:500;font-size:11.842px;">d</text>
            </g>
            <g transform="matrix(0.994308,0,0,1,1.68777,0)">
                <text x="296.541px" y="31.718px" style="font-family:'LucidaGrande', 'Lucida Grande', sans-serif;font-weight:500;font-size:8.289px;">x<tspan x="301.186px " y="31.718px ">z</tspan></text>
            </g>
            <g transform="matrix(0.994308,0,0,1,1.796,0)">
                <text x="315.556px" y="29.71px" style="font-family:'LucidaGrande', 'Lucida Grande', sans-serif;font-weight:500;font-size:11.842px;">d</text>
            </g>
            <g transform="matrix(0.994308,0,0,1,1.83463,0)">
                <text x="322.343px" y="31.718px" style="font-family:'LucidaGrande', 'Lucida Grande', sans-serif;font-weight:500;font-size:8.289px;">y<tspan x="326.235px " y="31.718px ">z</tspan></text>
            </g>
        </g>
        <g transform="matrix(1,0,0,1,-71.5798,-9.7499)">
            <g transform="matrix(0.994308,0,0,1,2.26798,0)">
                <text x="398.482px" y="45.159px" style="font-family:'LucidaGrande', 'Lucida Grande', sans-serif;font-weight:500;font-size:11.842px;">d</text>
            </g>
            <g transform="matrix(0.994308,0,0,1,2.30567,0)">
                <text x="405.105px" y="48.395px" style="font-family:'LucidaGrande', 'Lucida Grande', sans-serif;font-weight:500;font-size:8.289px;">z</text>
            </g>
            <g transform="matrix(0.994308,0,0,1,2.32942,0)">
                <text x="409.277px" y="45.689px" style="font-family:'LucidaGrande', 'Lucida Grande', sans-serif;font-weight:500;font-size:7.105px;">2</text>
            </g>
        </g>
        <g transform="matrix(1,0,0,1,-71.5798,-10.6242)">
            <g transform="matrix(0.994308,0,0,1,2.26798,0)">
                <text x="398.482px" y="60.104px" style="font-family:'LucidaGrande', 'Lucida Grande', sans-serif;font-weight:500;font-size:11.842px;">d</text>
            </g>
            <g transform="matrix(0.994308,0,0,1,2.30727,0)">
                <text x="405.386px" y="63.34px" style="font-family:'LucidaGrande', 'Lucida Grande', sans-serif;font-weight:500;font-size:8.289px;">x</text>
            </g>
            <g transform="matrix(0.994308,0,0,1,2.33402,0)">
                <text x="410.086px" y="60.633px" style="font-family:'LucidaGrande', 'Lucida Grande', sans-serif;font-weight:500;font-size:7.105px;">2</text>
            </g>
            <g transform="matrix(0.994308,0,0,1,2.35771,0)">
                <text x="414.249px" y="63.34px" style="font-family:'LucidaGrande', 'Lucida Grande', sans-serif;font-weight:500;font-size:8.289px;">y</text>
            </g>
            <g transform="matrix(0.994308,0,0,1,2.3802,0)">
                <text x="418.2px" y="60.633px" style="font-family:'LucidaGrande', 'Lucida Grande', sans-serif;font-weight:500;font-size:7.105px;">2</text>
            </g>
        </g>
        <g transform="matrix(1,0,0,1,-71.5798,-12.0028)">
            <g transform="matrix(0.994308,0,0,1,2.26798,0)">
                <text x="398.482px" y="75.553px" style="font-family:'LucidaGrande', 'Lucida Grande', sans-serif;font-weight:500;font-size:11.842px;">d</text>
            </g>
            <g transform="matrix(0.994308,0,0,1,2.30392,0)">
                <text x="404.798px" y="77.559px" style="font-family:'LucidaGrande', 'Lucida Grande', sans-serif;font-weight:500;font-size:8.289px;">x<tspan x="409.11px " y="77.559px ">y</tspan></text>
            </g>
        </g>
        <g transform="matrix(1,0,0,1,-71.5798,-12.8756)">
            <g transform="matrix(0.994308,0,0,1,2.26798,0)">
                <text x="398.482px" y="90.496px" style="font-family:'LucidaGrande', 'Lucida Grande', sans-serif;font-weight:500;font-size:11.842px;">d</text>
            </g>
            <g transform="matrix(0.994308,0,0,1,2.30392,0)">
                <text x="404.798px" y="92.504px" style="font-family:'LucidaGrande', 'Lucida Grande', sans-serif;font-weight:500;font-size:8.289px;">x<tspan x="409.11px " y="92.504px ">z</tspan></text>
            </g>
        </g>
        <g transform="matrix(1,0,0,1,-71.5798,-13.7499)">
            <g transform="matrix(0.994308,0,0,1,2.26798,0)">
                <text x="398.482px" y="105.441px" style="font-family:'LucidaGrande', 'Lucida Grande', sans-serif;font-weight:500;font-size:11.842px;">d</text>
            </g>
            <g transform="matrix(0.994308,0,0,1,2.30732,0)">
                <text x="405.395px" y="107.448px" style="font-family:'LucidaGrande', 'Lucida Grande', sans-serif;font-weight:500;font-size:8.289px;">y<tspan x="409.376px " y="107.448px ">z</tspan></text>
            </g>
        </g>
        <g transform="matrix(7.87402e-05,1.0698e-10,-1.0698e-10,7.87402e-05,0.92016,49.7343)">
            <path d="M0,0.5L736027,0.5" style="fill:none;fill-rule:nonzero;stroke:rgb(64,64,64);stroke-width:12700px;"/>
        </g>
        <g transform="matrix(7.87402e-05,1.0698e-10,-1.0698e-10,7.87402e-05,0.92016,65.7343)">
            <path d="M0,0.5L736027,0.5" style="fill:none;fill-rule:nonzero;stroke:rgb(64,64,64);stroke-width:12700px;"/>
        </g>
        <g transform="matrix(7.87402e-05,1.0698e-10,-1.0698e-10,7.87402e-05,0.92016,24.7343)">
            <path d="M0,0.5L736027,0.5" style="fill:none;fill-rule:nonzero;stroke:rgb(64,64,64);stroke-width:12700px;"/>
        </g>
        <g transform="matrix(7.87402e-05,1.0698e-10,-1.0698e-10,7.87402e-05,0.92016,10.7343)">
            <path d="M0,0.5L736027,0.5" style="fill:none;fill-rule:nonzero;stroke:rgb(64,64,64);stroke-width:12700px;"/>
        </g>
        <g transform="matrix(7.87402e-05,1.0698e-10,-1.0698e-10,7.87402e-05,0.92016,79.7343)">
            <path d="M0,0.5L736027,0.5" style="fill:none;fill-rule:nonzero;stroke:rgb(64,64,64);stroke-width:12700px;"/>
        </g>
        <g transform="matrix(1,0,0,1,-14.5798,5.9921)">
            <path d="M28,84L28,69.242L26,69.242L26,84L28,84ZM30,70.242L27,64.242L24,70.242L30,70.242Z" style="fill:rgb(28,173,228);fill-rule:nonzero;"/>
        </g>
        <g transform="matrix(1,0,0,1,-14.5798,-22.0079)">
            <path d="M36,98L36,83.242L34,83.242L34,98L36,98ZM38,84.242L35,78.242L32,84.242L38,84.242Z" style="fill:rgb(28,173,228);fill-rule:nonzero;"/>
        </g>
        <g transform="matrix(1,0,0,1,-14.5798,-52.0079)">
            <path d="M46,113L46,98.242L44,98.242L44,113L46,113ZM48,99.242L45,93.242L42,99.242L48,99.242Z" style="fill:rgb(28,173,228);fill-rule:nonzero;"/>
        </g>
        <g transform="matrix(1,0,0,1,-14.5798,-108.008)">
            <path d="M28,141L28,126.242L26,126.242L26,141L28,141ZM30,127.242L27,121.242L24,127.242L30,127.242Z" style="fill:rgb(28,173,228);fill-rule:nonzero;"/>
        </g>
        <g transform="matrix(1,0,0,1,-14.5798,-134.008)">
            <path d="M45,154L45,139.242L43,139.242L43,154L45,154ZM47,140.242L44,134.242L41,140.242L47,140.242Z" style="fill:rgb(28,173,228);fill-rule:nonzero;"/>
        </g>
        <g transform="matrix(1,0,0,1,-14.5798,5.9921)">
            <path d="M45,64.242L45,79L43,79L43,64.242L45,64.242ZM47,78L44,84L41,78L47,78Z" style="fill:rgb(28,173,228);fill-rule:nonzero;"/>
        </g>
        <g transform="matrix(1,0,0,1,-14.5798,-20.0079)">
            <path d="M52,77.242L52,92L50,92L50,77.242L52,77.242ZM54,91L51,97L48,91L54,91Z" style="fill:rgb(28,173,228);fill-rule:nonzero;"/>
        </g>
        <g transform="matrix(1,0,0,1,-14.5798,-52.0079)">
            <path d="M61,93.242L61,108L59,108L59,93.242L61,93.242ZM63,107L60,113L57,107L63,107Z" style="fill:rgb(28,173,228);fill-rule:nonzero;"/>
        </g>
        <g transform="matrix(0.327714,0,0,0.327714,161.874,26.1634)">
            <g transform="matrix(1,0,0,1,0,-150.407)">
                <path d="M4.279,215.688C5.07,215.688 5.286,215.688 5.286,215.185C5.357,190.008 8.267,169.106 20.837,151.544C21.087,151.221 21.087,151.149 21.087,151.077C21.087,150.719 20.837,150.719 20.262,150.719C19.687,150.719 19.615,150.719 19.543,150.791C19.4,150.899 14.839,156.141 11.212,163.36C6.471,172.841 3.49,183.724 2.161,196.796C2.053,197.91 1.3,205.38 1.3,213.891L1.3,215.292C1.335,215.688 1.551,215.688 2.304,215.688L4.279,215.688" style="fill-rule:nonzero;"/>
            </g>
            <g transform="matrix(1,0,0,1,0,-64.627)">
                <path d="M5.286,130.15C5.286,129.216 5.25,129.18 4.279,129.18L2.304,129.18C1.335,129.18 1.3,129.216 1.3,130.15L1.3,150.476C1.3,151.411 1.335,151.447 2.304,151.447L4.279,151.447C5.25,151.447 5.286,151.411 5.286,150.476L5.286,130.15" style="fill-rule:nonzero;"/>
            </g>
            <g transform="matrix(1,0,0,1,0,-21.627)">
                <path d="M5.286,108.65C5.286,107.716 5.25,107.68 4.279,107.68L2.304,107.68C1.335,107.68 1.3,107.716 1.3,108.65L1.3,128.976C1.3,129.911 1.335,129.947 2.304,129.947L4.279,129.947C5.25,129.947 5.286,129.911 5.286,128.976L5.286,108.65" style="fill-rule:nonzero;"/>
            </g>
            <g transform="matrix(1,0,0,1,0,21.3728)">
                <path d="M5.286,87.15C5.286,86.216 5.25,86.18 4.279,86.18L2.304,86.18C1.335,86.18 1.3,86.216 1.3,87.15L1.3,107.477C1.3,108.411 1.335,108.447 2.304,108.447L4.279,108.447C5.25,108.447 5.286,108.411 5.286,107.477L5.286,87.15" style="fill-rule:nonzero;"/>
            </g>
            <g transform="matrix(1,0,0,1,0,64.3724)">
                <path d="M5.286,65.651C5.286,64.716 5.25,64.68 4.279,64.68L2.304,64.68C1.335,64.68 1.3,64.716 1.3,65.651L1.3,85.977C1.3,86.912 1.335,86.947 2.304,86.947L4.279,86.947C5.25,86.947 5.286,86.912 5.286,85.977L5.286,65.651" style="fill-rule:nonzero;"/>
            </g>
            <g transform="matrix(1,0,0,1,0,150.202)">
                <path d="M2.304,0.415C1.551,0.415 1.335,0.415 1.3,0.81L1.3,2.21C1.3,24.154 5.214,37.011 6.328,40.638C8.77,48.611 12.756,57.015 18.753,64.413C19.292,65.06 19.435,65.24 19.579,65.311C19.651,65.347 19.687,65.383 20.262,65.383C20.837,65.383 21.087,65.383 21.087,65.024C21.087,64.952 21.087,64.88 20.873,64.557C8.912,47.965 5.321,27.996 5.286,0.918C5.286,0.415 5.07,0.415 4.279,0.415L2.304,0.415" style="fill-rule:nonzero;"/>
            </g>
            <g transform="matrix(1,0,0,1,0,-173.134)">
                <path d="M63.815,195.285C64.426,195.285 65.073,195.285 65.073,194.568C65.073,193.849 64.426,193.849 63.815,193.849L44.386,193.849C43.775,193.849 43.129,193.849 43.129,194.568C43.129,195.285 43.775,195.285 44.386,195.285L63.815,195.285" style="fill-rule:nonzero;"/>
            </g>
            <g transform="matrix(1,0,0,1,0,-178.304)">
                <path d="M84.173,201.497C84.173,197.224 81.229,193.632 77.35,193.632C75.626,193.632 74.081,194.207 72.789,195.464L72.789,188.46C73.507,188.675 74.692,188.927 75.842,188.927C80.259,188.927 82.773,185.66 82.773,185.193C82.773,184.977 82.665,184.797 82.414,184.797C82.378,184.797 82.306,184.797 82.126,184.905C81.407,185.228 79.648,185.946 77.242,185.946C75.806,185.946 74.153,185.696 72.465,184.941C72.178,184.833 72.106,184.833 72.034,184.833C71.675,184.833 71.675,185.121 71.675,185.696L71.675,196.325C71.675,196.972 71.675,197.26 72.178,197.26C72.429,197.26 72.501,197.152 72.645,196.936C73.04,196.361 74.368,194.422 77.278,194.422C79.145,194.422 80.043,196.074 80.331,196.721C80.906,198.049 80.978,199.45 80.978,201.246C80.978,202.503 80.978,204.658 80.115,206.166C79.253,207.566 77.925,208.5 76.273,208.5C73.651,208.5 71.604,206.597 70.993,204.478C71.101,204.514 71.209,204.55 71.604,204.55C72.789,204.55 73.4,203.652 73.4,202.789C73.4,201.928 72.789,201.03 71.604,201.03C71.101,201.03 69.843,201.282 69.843,202.933C69.843,206.022 72.321,209.507 76.345,209.507C80.511,209.507 84.173,206.058 84.173,201.497" style="fill-rule:nonzero;"/>
            </g>
            <g transform="matrix(0,-1,-1,0,278.531,119.549)">
                <path d="M91.04,185.588C92.082,185.588 92.943,186.45 92.943,187.491C92.943,188.533 92.082,189.394 91.04,189.394C90,189.394 89.137,188.533 89.137,187.491C89.137,186.45 90,185.588 91.04,185.588" style="fill-rule:nonzero;"/>
            </g>
            <g transform="matrix(1,0,0,1,0,-179.095)">
                <path d="M106.507,186.523C106.507,185.66 106.507,185.588 105.681,185.588C103.454,187.887 100.293,187.887 99.145,187.887L99.145,189.001C99.862,189.001 101.981,189.001 103.85,188.066L103.85,206.669C103.85,207.963 103.742,208.393 100.509,208.393L99.361,208.393L99.361,209.507C100.617,209.399 103.742,209.399 105.178,209.399C106.615,209.399 109.739,209.399 110.996,209.507L110.996,208.393L109.846,208.393C106.615,208.393 106.507,207.999 106.507,206.669L106.507,186.523" style="fill-rule:nonzero;"/>
            </g>
            <g transform="matrix(1,0,0,1,0,-178.304)">
                <path d="M166.268,197.224C166.268,194.35 166.089,191.477 164.832,188.819C163.179,185.372 160.236,184.797 158.726,184.797C156.571,184.797 153.95,185.732 152.478,189.071C151.328,191.549 151.148,194.35 151.148,197.224C151.148,199.918 151.292,203.149 152.765,205.878C154.309,208.788 156.931,209.507 158.69,209.507C160.629,209.507 163.359,208.752 164.94,205.339C166.089,202.861 166.268,200.061 166.268,197.224ZM158.69,208.716C157.29,208.716 155.171,207.818 154.525,204.371C154.129,202.216 154.129,198.911 154.129,196.793C154.129,194.494 154.129,192.124 154.417,190.185C155.1,185.91 157.793,185.588 158.69,185.588C159.876,185.588 162.246,186.233 162.929,189.789C163.287,191.8 163.287,194.53 163.287,196.793C163.287,199.486 163.287,201.928 162.893,204.227C162.354,207.638 160.307,208.716 158.69,208.716" style="fill-rule:nonzero;"/>
            </g>
            <g transform="matrix(0,-1,-1,0,360.231,201.249)">
                <path d="M172.74,185.588C173.782,185.588 174.643,186.45 174.643,187.491C174.643,188.533 173.782,189.394 172.74,189.394C171.7,189.394 170.837,188.533 170.837,187.491C170.837,186.45 171.7,185.588 172.74,185.588" style="fill-rule:nonzero;"/>
            </g>
            <g transform="matrix(1,0,0,1,0,-178.304)">
                <path d="M194.168,197.224C194.168,194.35 193.989,191.477 192.732,188.819C191.079,185.372 188.136,184.797 186.626,184.797C184.471,184.797 181.85,185.732 180.378,189.071C179.228,191.549 179.048,194.35 179.048,197.224C179.048,199.918 179.192,203.149 180.665,205.878C182.209,208.788 184.831,209.507 186.59,209.507C188.529,209.507 191.259,208.752 192.84,205.339C193.989,202.861 194.168,200.061 194.168,197.224ZM186.59,208.716C185.19,208.716 183.071,207.818 182.425,204.371C182.029,202.216 182.029,198.911 182.029,196.793C182.029,194.494 182.029,192.124 182.317,190.185C183,185.91 185.693,185.588 186.59,185.588C187.776,185.588 190.146,186.233 190.829,189.789C191.187,191.8 191.187,194.53 191.187,196.793C191.187,199.486 191.187,201.928 190.793,204.227C190.254,207.638 188.207,208.716 186.59,208.716" style="fill-rule:nonzero;"/>
            </g>
            <g transform="matrix(1,0,0,1,0,-178.304)">
                <path d="M247.968,197.224C247.968,194.35 247.789,191.477 246.532,188.819C244.879,185.372 241.936,184.797 240.426,184.797C238.271,184.797 235.65,185.732 234.178,189.071C233.028,191.549 232.848,194.35 232.848,197.224C232.848,199.918 232.992,203.149 234.465,205.878C236.009,208.788 238.631,209.507 240.39,209.507C242.329,209.507 245.059,208.752 246.64,205.339C247.789,202.861 247.968,200.061 247.968,197.224ZM240.39,208.716C238.99,208.716 236.871,207.818 236.225,204.371C235.829,202.216 235.829,198.911 235.829,196.793C235.829,194.494 235.829,192.124 236.117,190.185C236.8,185.91 239.493,185.588 240.39,185.588C241.576,185.588 243.946,186.233 244.629,189.789C244.987,191.8 244.987,194.53 244.987,196.793C244.987,199.486 244.987,201.928 244.593,204.227C244.054,207.638 242.007,208.716 240.39,208.716" style="fill-rule:nonzero;"/>
            </g>
            <g transform="matrix(0,-1,-1,0,441.931,282.949)">
                <path d="M254.44,185.588C255.482,185.588 256.343,186.45 256.343,187.491C256.343,188.533 255.482,189.394 254.44,189.394C253.4,189.394 252.537,188.533 252.537,187.491C252.537,186.45 253.4,185.588 254.44,185.588" style="fill-rule:nonzero;"/>
            </g>
            <g transform="matrix(1,0,0,1,0,-178.304)">
                <path d="M275.868,197.224C275.868,194.35 275.689,191.477 274.432,188.819C272.779,185.372 269.836,184.797 268.326,184.797C266.171,184.797 263.55,185.732 262.078,189.071C260.928,191.549 260.748,194.35 260.748,197.224C260.748,199.918 260.892,203.149 262.365,205.878C263.909,208.788 266.531,209.507 268.29,209.507C270.229,209.507 272.959,208.752 274.54,205.339C275.689,202.861 275.868,200.061 275.868,197.224ZM268.29,208.716C266.89,208.716 264.771,207.818 264.125,204.371C263.729,202.216 263.729,198.911 263.729,196.793C263.729,194.494 263.729,192.124 264.017,190.185C264.7,185.91 267.393,185.588 268.29,185.588C269.476,185.588 271.846,186.233 272.529,189.789C272.887,191.8 272.887,194.53 272.887,196.793C272.887,199.486 272.887,201.928 272.493,204.227C271.954,207.638 269.907,208.716 268.29,208.716" style="fill-rule:nonzero;"/>
            </g>
            <g transform="matrix(1,0,0,1,0,-178.304)">
                <path d="M329.668,197.224C329.668,194.35 329.489,191.477 328.232,188.819C326.579,185.372 323.636,184.797 322.126,184.797C319.971,184.797 317.35,185.732 315.878,189.071C314.728,191.549 314.548,194.35 314.548,197.224C314.548,199.918 314.692,203.149 316.165,205.878C317.709,208.788 320.331,209.507 322.09,209.507C324.029,209.507 326.759,208.752 328.34,205.339C329.489,202.861 329.668,200.061 329.668,197.224ZM322.09,208.716C320.69,208.716 318.571,207.818 317.925,204.371C317.529,202.216 317.529,198.911 317.529,196.793C317.529,194.494 317.529,192.124 317.817,190.185C318.5,185.91 321.193,185.588 322.09,185.588C323.276,185.588 325.646,186.233 326.329,189.789C326.687,191.8 326.687,194.53 326.687,196.793C326.687,199.486 326.687,201.928 326.293,204.227C325.754,207.638 323.707,208.716 322.09,208.716" style="fill-rule:nonzero;"/>
            </g>
            <g transform="matrix(0,-1,-1,0,523.631,364.649)">
                <path d="M336.14,185.588C337.182,185.588 338.043,186.45 338.043,187.491C338.043,188.533 337.182,189.394 336.14,189.394C335.1,189.394 334.237,188.533 334.237,187.491C334.237,186.45 335.1,185.588 336.14,185.588" style="fill-rule:nonzero;"/>
            </g>
            <g transform="matrix(1,0,0,1,0,-178.304)">
                <path d="M357.568,197.224C357.568,194.35 357.389,191.477 356.132,188.819C354.479,185.372 351.536,184.797 350.026,184.797C347.871,184.797 345.25,185.732 343.778,189.071C342.628,191.549 342.448,194.35 342.448,197.224C342.448,199.918 342.592,203.149 344.065,205.878C345.609,208.788 348.231,209.507 349.99,209.507C351.929,209.507 354.659,208.752 356.24,205.339C357.389,202.861 357.568,200.061 357.568,197.224ZM349.99,208.716C348.59,208.716 346.471,207.818 345.825,204.371C345.429,202.216 345.429,198.911 345.429,196.793C345.429,194.494 345.429,192.124 345.717,190.185C346.4,185.91 349.093,185.588 349.99,185.588C351.176,185.588 353.546,186.233 354.229,189.789C354.587,191.8 354.587,194.53 354.587,196.793C354.587,199.486 354.587,201.928 354.193,204.227C353.654,207.638 351.607,208.716 349.99,208.716" style="fill-rule:nonzero;"/>
            </g>
            <g transform="matrix(1,0,0,1,0,-178.304)">
                <path d="M411.368,197.224C411.368,194.35 411.189,191.477 409.932,188.819C408.279,185.372 405.336,184.797 403.826,184.797C401.671,184.797 399.05,185.732 397.578,189.071C396.428,191.549 396.248,194.35 396.248,197.224C396.248,199.918 396.392,203.149 397.865,205.878C399.409,208.788 402.031,209.507 403.79,209.507C405.729,209.507 408.459,208.752 410.04,205.339C411.189,202.861 411.368,200.061 411.368,197.224ZM403.79,208.716C402.39,208.716 400.271,207.818 399.625,204.371C399.229,202.216 399.229,198.911 399.229,196.793C399.229,194.494 399.229,192.124 399.517,190.185C400.2,185.91 402.893,185.588 403.79,185.588C404.976,185.588 407.346,186.233 408.029,189.789C408.387,191.8 408.387,194.53 408.387,196.793C408.387,199.486 408.387,201.928 407.993,204.227C407.454,207.638 405.407,208.716 403.79,208.716" style="fill-rule:nonzero;"/>
            </g>
            <g transform="matrix(0,-1,-1,0,605.231,446.249)">
                <path d="M417.74,185.588C418.782,185.588 419.643,186.45 419.643,187.491C419.643,188.533 418.782,189.394 417.74,189.394C416.7,189.394 415.837,188.533 415.837,187.491C415.837,186.45 416.7,185.588 417.74,185.588" style="fill-rule:nonzero;"/>
            </g>
            <g transform="matrix(1,0,0,1,0,-178.304)">
                <path d="M439.268,197.224C439.268,194.35 439.089,191.477 437.832,188.819C436.179,185.372 433.236,184.797 431.726,184.797C429.571,184.797 426.95,185.732 425.478,189.071C424.328,191.549 424.148,194.35 424.148,197.224C424.148,199.918 424.292,203.149 425.765,205.878C427.309,208.788 429.931,209.507 431.69,209.507C433.629,209.507 436.359,208.752 437.94,205.339C439.089,202.861 439.268,200.061 439.268,197.224ZM431.69,208.716C430.29,208.716 428.171,207.818 427.525,204.371C427.129,202.216 427.129,198.911 427.129,196.793C427.129,194.494 427.129,192.124 427.417,190.185C428.1,185.91 430.793,185.588 431.69,185.588C432.876,185.588 435.246,186.233 435.929,189.789C436.287,191.8 436.287,194.53 436.287,196.793C436.287,199.486 436.287,201.928 435.893,204.227C435.354,207.638 433.307,208.716 431.69,208.716" style="fill-rule:nonzero;"/>
            </g>
            <g transform="matrix(1,0,0,1,0,-92.104)">
                <path d="M70.668,154.124C70.668,151.25 70.489,148.377 69.232,145.719C67.579,142.272 64.635,141.697 63.126,141.697C60.971,141.697 58.35,142.632 56.878,145.971C55.728,148.449 55.548,151.25 55.548,154.124C55.548,156.818 55.692,160.049 57.165,162.778C58.709,165.688 61.331,166.407 63.09,166.407C65.029,166.407 67.759,165.652 69.34,162.239C70.489,159.761 70.668,156.961 70.668,154.124ZM63.09,165.616C61.69,165.616 59.571,164.718 58.925,161.271C58.529,159.116 58.529,155.811 58.529,153.693C58.529,151.394 58.529,149.024 58.817,147.085C59.5,142.81 62.193,142.488 63.09,142.488C64.276,142.488 66.646,143.133 67.329,146.689C67.687,148.7 67.687,151.43 67.687,153.693C67.687,156.386 67.687,158.828 67.293,161.127C66.754,164.538 64.707,165.616 63.09,165.616" style="fill-rule:nonzero;"/>
            </g>
            <g transform="matrix(0,-1,-1,0,221.431,148.649)">
                <path d="M77.04,142.488C78.082,142.488 78.943,143.35 78.943,144.391C78.943,145.433 78.082,146.294 77.04,146.294C76,146.294 75.137,145.433 75.137,144.391C75.137,143.35 76,142.488 77.04,142.488" style="fill-rule:nonzero;"/>
            </g>
            <g transform="matrix(1,0,0,1,0,-92.104)">
                <path d="M98.568,154.124C98.568,151.25 98.389,148.377 97.132,145.719C95.479,142.272 92.536,141.697 91.026,141.697C88.871,141.697 86.25,142.632 84.778,145.971C83.628,148.449 83.448,151.25 83.448,154.124C83.448,156.818 83.592,160.049 85.065,162.778C86.609,165.688 89.231,166.407 90.99,166.407C92.929,166.407 95.659,165.652 97.24,162.239C98.389,159.761 98.568,156.961 98.568,154.124ZM90.99,165.616C89.59,165.616 87.471,164.718 86.825,161.271C86.429,159.116 86.429,155.811 86.429,153.693C86.429,151.394 86.429,149.024 86.717,147.085C87.4,142.81 90.093,142.488 90.99,142.488C92.176,142.488 94.546,143.133 95.229,146.689C95.587,148.7 95.587,151.43 95.587,153.693C95.587,156.386 95.587,158.828 95.193,161.127C94.654,164.538 92.607,165.616 90.99,165.616" style="fill-rule:nonzero;"/>
            </g>
            <g transform="matrix(1,0,0,1,0,-92.104)">
                <path d="M166.268,154.124C166.268,151.25 166.089,148.377 164.832,145.719C163.179,142.272 160.236,141.697 158.726,141.697C156.571,141.697 153.95,142.632 152.478,145.971C151.328,148.449 151.148,151.25 151.148,154.124C151.148,156.818 151.292,160.049 152.765,162.778C154.309,165.688 156.931,166.407 158.69,166.407C160.629,166.407 163.359,165.652 164.94,162.239C166.089,159.761 166.268,156.961 166.268,154.124ZM158.69,165.616C157.29,165.616 155.171,164.718 154.525,161.271C154.129,159.116 154.129,155.811 154.129,153.693C154.129,151.394 154.129,149.024 154.417,147.085C155.1,142.81 157.793,142.488 158.69,142.488C159.876,142.488 162.246,143.133 162.929,146.689C163.287,148.7 163.287,151.43 163.287,153.693C163.287,156.386 163.287,158.828 162.893,161.127C162.354,164.538 160.307,165.616 158.69,165.616" style="fill-rule:nonzero;"/>
            </g>
            <g transform="matrix(0,-1,-1,0,317.131,244.349)">
                <path d="M172.74,142.488C173.782,142.488 174.643,143.35 174.643,144.391C174.643,145.433 173.782,146.294 172.74,146.294C171.7,146.294 170.837,145.433 170.837,144.391C170.837,143.35 171.7,142.488 172.74,142.488" style="fill-rule:nonzero;"/>
            </g>
            <g transform="matrix(1,0,0,1,0,-92.104)">
                <path d="M194.168,154.124C194.168,151.25 193.989,148.377 192.732,145.719C191.079,142.272 188.136,141.697 186.626,141.697C184.471,141.697 181.85,142.632 180.378,145.971C179.228,148.449 179.048,151.25 179.048,154.124C179.048,156.818 179.192,160.049 180.665,162.778C182.209,165.688 184.831,166.407 186.59,166.407C188.529,166.407 191.259,165.652 192.84,162.239C193.989,159.761 194.168,156.961 194.168,154.124ZM186.59,165.616C185.19,165.616 183.071,164.718 182.425,161.271C182.029,159.116 182.029,155.811 182.029,153.693C182.029,151.394 182.029,149.024 182.317,147.085C183,142.81 185.693,142.488 186.59,142.488C187.776,142.488 190.146,143.133 190.829,146.689C191.187,148.7 191.187,151.43 191.187,153.693C191.187,156.386 191.187,158.828 190.793,161.127C190.254,164.538 188.207,165.616 186.59,165.616" style="fill-rule:nonzero;"/>
            </g>
            <g transform="matrix(1,0,0,1,0,-92.104)">
                <path d="M247.968,154.124C247.968,151.25 247.789,148.377 246.532,145.719C244.879,142.272 241.936,141.697 240.426,141.697C238.271,141.697 235.65,142.632 234.178,145.971C233.028,148.449 232.848,151.25 232.848,154.124C232.848,156.818 232.992,160.049 234.465,162.778C236.009,165.688 238.631,166.407 240.39,166.407C242.329,166.407 245.059,165.652 246.64,162.239C247.789,159.761 247.968,156.961 247.968,154.124ZM240.39,165.616C238.99,165.616 236.871,164.718 236.225,161.271C235.829,159.116 235.829,155.811 235.829,153.693C235.829,151.394 235.829,149.024 236.117,147.085C236.8,142.81 239.493,142.488 240.39,142.488C241.576,142.488 243.946,143.133 244.629,146.689C244.987,148.7 244.987,151.43 244.987,153.693C244.987,156.386 244.987,158.828 244.593,161.127C244.054,164.538 242.007,165.616 240.39,165.616" style="fill-rule:nonzero;"/>
            </g>
            <g transform="matrix(0,-1,-1,0,398.831,326.049)">
                <path d="M254.44,142.488C255.482,142.488 256.343,143.35 256.343,144.391C256.343,145.433 255.482,146.294 254.44,146.294C253.4,146.294 252.537,145.433 252.537,144.391C252.537,143.35 253.4,142.488 254.44,142.488" style="fill-rule:nonzero;"/>
            </g>
            <g transform="matrix(1,0,0,1,0,-92.104)">
                <path d="M275.868,154.124C275.868,151.25 275.689,148.377 274.432,145.719C272.779,142.272 269.836,141.697 268.326,141.697C266.171,141.697 263.55,142.632 262.078,145.971C260.928,148.449 260.748,151.25 260.748,154.124C260.748,156.818 260.892,160.049 262.365,162.778C263.909,165.688 266.531,166.407 268.29,166.407C270.229,166.407 272.959,165.652 274.54,162.239C275.689,159.761 275.868,156.961 275.868,154.124ZM268.29,165.616C266.89,165.616 264.771,164.718 264.125,161.271C263.729,159.116 263.729,155.811 263.729,153.693C263.729,151.394 263.729,149.024 264.017,147.085C264.7,142.81 267.393,142.488 268.29,142.488C269.476,142.488 271.846,143.133 272.529,146.689C272.887,148.7 272.887,151.43 272.887,153.693C272.887,156.386 272.887,158.828 272.493,161.127C271.954,164.538 269.907,165.616 268.29,165.616" style="fill-rule:nonzero;"/>
            </g>
            <g transform="matrix(1,0,0,1,0,-92.104)">
                <path d="M329.668,154.124C329.668,151.25 329.489,148.377 328.232,145.719C326.579,142.272 323.636,141.697 322.126,141.697C319.971,141.697 317.35,142.632 315.878,145.971C314.728,148.449 314.548,151.25 314.548,154.124C314.548,156.818 314.692,160.049 316.165,162.778C317.709,165.688 320.331,166.407 322.09,166.407C324.029,166.407 326.759,165.652 328.34,162.239C329.489,159.761 329.668,156.961 329.668,154.124ZM322.09,165.616C320.69,165.616 318.571,164.718 317.925,161.271C317.529,159.116 317.529,155.811 317.529,153.693C317.529,151.394 317.529,149.024 317.817,147.085C318.5,142.81 321.193,142.488 322.09,142.488C323.276,142.488 325.646,143.133 326.329,146.689C326.687,148.7 326.687,151.43 326.687,153.693C326.687,156.386 326.687,158.828 326.293,161.127C325.754,164.538 323.707,165.616 322.09,165.616" style="fill-rule:nonzero;"/>
            </g>
            <g transform="matrix(0,-1,-1,0,480.531,407.749)">
                <path d="M336.14,142.488C337.182,142.488 338.043,143.35 338.043,144.391C338.043,145.433 337.182,146.294 336.14,146.294C335.1,146.294 334.237,145.433 334.237,144.391C334.237,143.35 335.1,142.488 336.14,142.488" style="fill-rule:nonzero;"/>
            </g>
            <g transform="matrix(1,0,0,1,0,-92.104)">
                <path d="M357.568,154.124C357.568,151.25 357.389,148.377 356.132,145.719C354.479,142.272 351.536,141.697 350.026,141.697C347.871,141.697 345.25,142.632 343.778,145.971C342.628,148.449 342.448,151.25 342.448,154.124C342.448,156.818 342.592,160.049 344.065,162.778C345.609,165.688 348.231,166.407 349.99,166.407C351.929,166.407 354.659,165.652 356.24,162.239C357.389,159.761 357.568,156.961 357.568,154.124ZM349.99,165.616C348.59,165.616 346.471,164.718 345.825,161.271C345.429,159.116 345.429,155.811 345.429,153.693C345.429,151.394 345.429,149.024 345.717,147.085C346.4,142.81 349.093,142.488 349.99,142.488C351.176,142.488 353.546,143.133 354.229,146.689C354.587,148.7 354.587,151.43 354.587,153.693C354.587,156.386 354.587,158.828 354.193,161.127C353.654,164.538 351.607,165.616 349.99,165.616" style="fill-rule:nonzero;"/>
            </g>
            <g transform="matrix(1,0,0,1,0,-92.104)">
                <path d="M411.368,154.124C411.368,151.25 411.189,148.377 409.932,145.719C408.279,142.272 405.336,141.697 403.826,141.697C401.671,141.697 399.05,142.632 397.578,145.971C396.428,148.449 396.248,151.25 396.248,154.124C396.248,156.818 396.392,160.049 397.865,162.778C399.409,165.688 402.031,166.407 403.79,166.407C405.729,166.407 408.459,165.652 410.04,162.239C411.189,159.761 411.368,156.961 411.368,154.124ZM403.79,165.616C402.39,165.616 400.271,164.718 399.625,161.271C399.229,159.116 399.229,155.811 399.229,153.693C399.229,151.394 399.229,149.024 399.517,147.085C400.2,142.81 402.893,142.488 403.79,142.488C404.976,142.488 407.346,143.133 408.029,146.689C408.387,148.7 408.387,151.43 408.387,153.693C408.387,156.386 408.387,158.828 407.993,161.127C407.454,164.538 405.407,165.616 403.79,165.616" style="fill-rule:nonzero;"/>
            </g>
            <g transform="matrix(0,-1,-1,0,562.131,489.349)">
                <path d="M417.74,142.488C418.782,142.488 419.643,143.35 419.643,144.391C419.643,145.433 418.782,146.294 417.74,146.294C416.7,146.294 415.837,145.433 415.837,144.391C415.837,143.35 416.7,142.488 417.74,142.488" style="fill-rule:nonzero;"/>
            </g>
            <g transform="matrix(1,0,0,1,0,-92.104)">
                <path d="M439.268,154.124C439.268,151.25 439.089,148.377 437.832,145.719C436.179,142.272 433.236,141.697 431.726,141.697C429.571,141.697 426.95,142.632 425.478,145.971C424.328,148.449 424.148,151.25 424.148,154.124C424.148,156.818 424.292,160.049 425.765,162.778C427.309,165.688 429.931,166.407 431.69,166.407C433.629,166.407 436.359,165.652 437.94,162.239C439.089,159.761 439.268,156.961 439.268,154.124ZM431.69,165.616C430.29,165.616 428.171,164.718 427.525,161.271C427.129,159.116 427.129,155.811 427.129,153.693C427.129,151.394 427.129,149.024 427.417,147.085C428.1,142.81 430.793,142.488 431.69,142.488C432.876,142.488 435.246,143.133 435.929,146.689C436.287,148.7 436.287,151.43 436.287,153.693C436.287,156.386 436.287,158.828 435.893,161.127C435.354,164.538 433.307,165.616 431.69,165.616" style="fill-rule:nonzero;"/>
            </g>
            <g transform="matrix(1,0,0,1,0,-6.1044)">
                <path d="M70.668,111.124C70.668,108.25 70.489,105.377 69.232,102.719C67.579,99.272 64.635,98.697 63.126,98.697C60.971,98.697 58.35,99.632 56.878,102.971C55.728,105.449 55.548,108.25 55.548,111.124C55.548,113.818 55.692,117.049 57.165,119.778C58.709,122.688 61.331,123.407 63.09,123.407C65.029,123.407 67.759,122.652 69.34,119.239C70.489,116.761 70.668,113.961 70.668,111.124ZM63.09,122.616C61.69,122.616 59.571,121.718 58.925,118.271C58.529,116.116 58.529,112.811 58.529,110.693C58.529,108.394 58.529,106.024 58.817,104.085C59.5,99.81 62.193,99.488 63.09,99.488C64.276,99.488 66.646,100.133 67.329,103.689C67.687,105.7 67.687,108.43 67.687,110.693C67.687,113.386 67.687,115.828 67.293,118.127C66.754,121.538 64.707,122.616 63.09,122.616" style="fill-rule:nonzero;"/>
            </g>
            <g transform="matrix(0,-1,-1,0,178.431,191.649)">
                <path d="M77.04,99.488C78.082,99.488 78.943,100.35 78.943,101.391C78.943,102.433 78.082,103.294 77.04,103.294C76,103.294 75.137,102.433 75.137,101.391C75.137,100.35 76,99.488 77.04,99.488" style="fill-rule:nonzero;"/>
            </g>
            <g transform="matrix(1,0,0,1,0,-6.1044)">
                <path d="M98.568,111.124C98.568,108.25 98.389,105.377 97.132,102.719C95.479,99.272 92.536,98.697 91.026,98.697C88.871,98.697 86.25,99.632 84.778,102.971C83.628,105.449 83.448,108.25 83.448,111.124C83.448,113.818 83.592,117.049 85.065,119.778C86.609,122.688 89.231,123.407 90.99,123.407C92.929,123.407 95.659,122.652 97.24,119.239C98.389,116.761 98.568,113.961 98.568,111.124ZM90.99,122.616C89.59,122.616 87.471,121.718 86.825,118.271C86.429,116.116 86.429,112.811 86.429,110.693C86.429,108.394 86.429,106.024 86.717,104.085C87.4,99.81 90.093,99.488 90.99,99.488C92.176,99.488 94.546,100.133 95.229,103.689C95.587,105.7 95.587,108.43 95.587,110.693C95.587,113.386 95.587,115.828 95.193,118.127C94.654,121.538 92.607,122.616 90.99,122.616" style="fill-rule:nonzero;"/>
            </g>
            <g transform="matrix(1,0,0,1,0,-6.1044)">
                <path d="M166.268,111.124C166.268,108.25 166.089,105.377 164.832,102.719C163.179,99.272 160.236,98.697 158.726,98.697C156.571,98.697 153.95,99.632 152.478,102.971C151.328,105.449 151.148,108.25 151.148,111.124C151.148,113.818 151.292,117.049 152.765,119.778C154.309,122.688 156.931,123.407 158.69,123.407C160.629,123.407 163.359,122.652 164.94,119.239C166.089,116.761 166.268,113.961 166.268,111.124ZM158.69,122.616C157.29,122.616 155.171,121.718 154.525,118.271C154.129,116.116 154.129,112.811 154.129,110.693C154.129,108.394 154.129,106.024 154.417,104.085C155.1,99.81 157.793,99.488 158.69,99.488C159.876,99.488 162.246,100.133 162.929,103.689C163.287,105.7 163.287,108.43 163.287,110.693C163.287,113.386 163.287,115.828 162.893,118.127C162.354,121.538 160.307,122.616 158.69,122.616" style="fill-rule:nonzero;"/>
            </g>
            <g transform="matrix(0,-1,-1,0,274.131,287.349)">
                <path d="M172.74,99.488C173.782,99.488 174.643,100.35 174.643,101.391C174.643,102.433 173.782,103.294 172.74,103.294C171.7,103.294 170.837,102.433 170.837,101.391C170.837,100.35 171.7,99.488 172.74,99.488" style="fill-rule:nonzero;"/>
            </g>
            <g transform="matrix(1,0,0,1,0,-6.1044)">
                <path d="M194.168,111.124C194.168,108.25 193.989,105.377 192.732,102.719C191.079,99.272 188.136,98.697 186.626,98.697C184.471,98.697 181.85,99.632 180.378,102.971C179.228,105.449 179.048,108.25 179.048,111.124C179.048,113.818 179.192,117.049 180.665,119.778C182.209,122.688 184.831,123.407 186.59,123.407C188.529,123.407 191.259,122.652 192.84,119.239C193.989,116.761 194.168,113.961 194.168,111.124ZM186.59,122.616C185.19,122.616 183.071,121.718 182.425,118.271C182.029,116.116 182.029,112.811 182.029,110.693C182.029,108.394 182.029,106.024 182.317,104.085C183,99.81 185.693,99.488 186.59,99.488C187.776,99.488 190.146,100.133 190.829,103.689C191.187,105.7 191.187,108.43 191.187,110.693C191.187,113.386 191.187,115.828 190.793,118.127C190.254,121.538 188.207,122.616 186.59,122.616" style="fill-rule:nonzero;"/>
            </g>
            <g transform="matrix(1,0,0,1,0,-6.1044)">
                <path d="M247.968,111.124C247.968,108.25 247.789,105.377 246.532,102.719C244.879,99.272 241.936,98.697 240.426,98.697C238.271,98.697 235.65,99.632 234.178,102.971C233.028,105.449 232.848,108.25 232.848,111.124C232.848,113.818 232.992,117.049 234.465,119.778C236.009,122.688 238.631,123.407 240.39,123.407C242.329,123.407 245.059,122.652 246.64,119.239C247.789,116.761 247.968,113.961 247.968,111.124ZM240.39,122.616C238.99,122.616 236.871,121.718 236.225,118.271C235.829,116.116 235.829,112.811 235.829,110.693C235.829,108.394 235.829,106.024 236.117,104.085C236.8,99.81 239.493,99.488 240.39,99.488C241.576,99.488 243.946,100.133 244.629,103.689C244.987,105.7 244.987,108.43 244.987,110.693C244.987,113.386 244.987,115.828 244.593,118.127C244.054,121.538 242.007,122.616 240.39,122.616" style="fill-rule:nonzero;"/>
            </g>
            <g transform="matrix(0,-1,-1,0,355.831,369.049)">
                <path d="M254.44,99.488C255.482,99.488 256.343,100.35 256.343,101.391C256.343,102.433 255.482,103.294 254.44,103.294C253.4,103.294 252.537,102.433 252.537,101.391C252.537,100.35 253.4,99.488 254.44,99.488" style="fill-rule:nonzero;"/>
            </g>
            <g transform="matrix(1,0,0,1,0,-6.1044)">
                <path d="M275.868,111.124C275.868,108.25 275.689,105.377 274.432,102.719C272.779,99.272 269.836,98.697 268.326,98.697C266.171,98.697 263.55,99.632 262.078,102.971C260.928,105.449 260.748,108.25 260.748,111.124C260.748,113.818 260.892,117.049 262.365,119.778C263.909,122.688 266.531,123.407 268.29,123.407C270.229,123.407 272.959,122.652 274.54,119.239C275.689,116.761 275.868,113.961 275.868,111.124ZM268.29,122.616C266.89,122.616 264.771,121.718 264.125,118.271C263.729,116.116 263.729,112.811 263.729,110.693C263.729,108.394 263.729,106.024 264.017,104.085C264.7,99.81 267.393,99.488 268.29,99.488C269.476,99.488 271.846,100.133 272.529,103.689C272.887,105.7 272.887,108.43 272.887,110.693C272.887,113.386 272.887,115.828 272.493,118.127C271.954,121.538 269.907,122.616 268.29,122.616" style="fill-rule:nonzero;"/>
            </g>
            <g transform="matrix(1,0,0,1,0,-6.1044)">
                <path d="M329.668,111.124C329.668,108.25 329.489,105.377 328.232,102.719C326.579,99.272 323.636,98.697 322.126,98.697C319.971,98.697 317.35,99.632 315.878,102.971C314.728,105.449 314.548,108.25 314.548,111.124C314.548,113.818 314.692,117.049 316.165,119.778C317.709,122.688 320.331,123.407 322.09,123.407C324.029,123.407 326.759,122.652 328.34,119.239C329.489,116.761 329.668,113.961 329.668,111.124ZM322.09,122.616C320.69,122.616 318.571,121.718 317.925,118.271C317.529,116.116 317.529,112.811 317.529,110.693C317.529,108.394 317.529,106.024 317.817,104.085C318.5,99.81 321.193,99.488 322.09,99.488C323.276,99.488 325.646,100.133 326.329,103.689C326.687,105.7 326.687,108.43 326.687,110.693C326.687,113.386 326.687,115.828 326.293,118.127C325.754,121.538 323.707,122.616 322.09,122.616" style="fill-rule:nonzero;"/>
            </g>
            <g transform="matrix(0,-1,-1,0,437.531,450.749)">
                <path d="M336.14,99.488C337.182,99.488 338.043,100.35 338.043,101.391C338.043,102.433 337.182,103.294 336.14,103.294C335.1,103.294 334.237,102.433 334.237,101.391C334.237,100.35 335.1,99.488 336.14,99.488" style="fill-rule:nonzero;"/>
            </g>
            <g transform="matrix(1,0,0,1,0,-6.1044)">
                <path d="M357.568,111.124C357.568,108.25 357.389,105.377 356.132,102.719C354.479,99.272 351.536,98.697 350.026,98.697C347.871,98.697 345.25,99.632 343.778,102.971C342.628,105.449 342.448,108.25 342.448,111.124C342.448,113.818 342.592,117.049 344.065,119.778C345.609,122.688 348.231,123.407 349.99,123.407C351.929,123.407 354.659,122.652 356.24,119.239C357.389,116.761 357.568,113.961 357.568,111.124ZM349.99,122.616C348.59,122.616 346.471,121.718 345.825,118.271C345.429,116.116 345.429,112.811 345.429,110.693C345.429,108.394 345.429,106.024 345.717,104.085C346.4,99.81 349.093,99.488 349.99,99.488C351.176,99.488 353.546,100.133 354.229,103.689C354.587,105.7 354.587,108.43 354.587,110.693C354.587,113.386 354.587,115.828 354.193,118.127C353.654,121.538 351.607,122.616 349.99,122.616" style="fill-rule:nonzero;"/>
            </g>
            <g transform="matrix(1,0,0,1,0,-6.1044)">
                <path d="M411.368,111.124C411.368,108.25 411.189,105.377 409.932,102.719C408.279,99.272 405.336,98.697 403.826,98.697C401.671,98.697 399.05,99.632 397.578,102.971C396.428,105.449 396.248,108.25 396.248,111.124C396.248,113.818 396.392,117.049 397.865,119.778C399.409,122.688 402.031,123.407 403.79,123.407C405.729,123.407 408.459,122.652 410.04,119.239C411.189,116.761 411.368,113.961 411.368,111.124ZM403.79,122.616C402.39,122.616 400.271,121.718 399.625,118.271C399.229,116.116 399.229,112.811 399.229,110.693C399.229,108.394 399.229,106.024 399.517,104.085C400.2,99.81 402.893,99.488 403.79,99.488C404.976,99.488 407.346,100.133 408.029,103.689C408.387,105.7 408.387,108.43 408.387,110.693C408.387,113.386 408.387,115.828 407.993,118.127C407.454,121.538 405.407,122.616 403.79,122.616" style="fill-rule:nonzero;"/>
            </g>
            <g transform="matrix(0,-1,-1,0,519.131,532.349)">
                <path d="M417.74,99.488C418.782,99.488 419.643,100.35 419.643,101.391C419.643,102.433 418.782,103.294 417.74,103.294C416.7,103.294 415.837,102.433 415.837,101.391C415.837,100.35 416.7,99.488 417.74,99.488" style="fill-rule:nonzero;"/>
            </g>
            <g transform="matrix(1,0,0,1,0,-6.1044)">
                <path d="M439.268,111.124C439.268,108.25 439.089,105.377 437.832,102.719C436.179,99.272 433.236,98.697 431.726,98.697C429.571,98.697 426.95,99.632 425.478,102.971C424.328,105.449 424.148,108.25 424.148,111.124C424.148,113.818 424.292,117.049 425.765,119.778C427.309,122.688 429.931,123.407 431.69,123.407C433.629,123.407 436.359,122.652 437.94,119.239C439.089,116.761 439.268,113.961 439.268,111.124ZM431.69,122.616C430.29,122.616 428.171,121.718 427.525,118.271C427.129,116.116 427.129,112.811 427.129,110.693C427.129,108.394 427.129,106.024 427.417,104.085C428.1,99.81 430.793,99.488 431.69,99.488C432.876,99.488 435.246,100.133 435.929,103.689C436.287,105.7 436.287,108.43 436.287,110.693C436.287,113.386 436.287,115.828 435.893,118.127C435.354,121.538 433.307,122.616 431.69,122.616" style="fill-rule:nonzero;"/>
            </g>
            <g transform="matrix(1,0,0,1,0,79.8958)">
                <path d="M70.668,68.124C70.668,65.251 70.489,62.377 69.232,59.719C67.579,56.272 64.635,55.697 63.126,55.697C60.971,55.697 58.35,56.632 56.878,59.971C55.728,62.449 55.548,65.251 55.548,68.124C55.548,70.818 55.692,74.049 57.165,76.779C58.709,79.688 61.331,80.407 63.09,80.407C65.029,80.407 67.759,79.652 69.34,76.24C70.489,73.761 70.668,70.962 70.668,68.124ZM63.09,79.616C61.69,79.616 59.571,78.718 58.925,75.271C58.529,73.116 58.529,69.812 58.529,67.693C58.529,65.394 58.529,63.024 58.817,61.085C59.5,56.81 62.193,56.488 63.09,56.488C64.276,56.488 66.646,57.133 67.329,60.69C67.687,62.701 67.687,65.43 67.687,67.693C67.687,70.386 67.687,72.829 67.293,75.127C66.754,78.538 64.707,79.616 63.09,79.616" style="fill-rule:nonzero;"/>
            </g>
            <g transform="matrix(0,-1,-1,0,135.431,234.649)">
                <path d="M77.04,56.488C78.082,56.488 78.943,57.351 78.943,58.391C78.943,59.433 78.082,60.294 77.04,60.294C76,60.294 75.137,59.433 75.137,58.391C75.137,57.351 76,56.488 77.04,56.488" style="fill-rule:nonzero;"/>
            </g>
            <g transform="matrix(1,0,0,1,0,79.8958)">
                <path d="M98.568,68.124C98.568,65.251 98.389,62.377 97.132,59.719C95.479,56.272 92.536,55.697 91.026,55.697C88.871,55.697 86.25,56.632 84.778,59.971C83.628,62.449 83.448,65.251 83.448,68.124C83.448,70.818 83.592,74.049 85.065,76.779C86.609,79.688 89.231,80.407 90.99,80.407C92.929,80.407 95.659,79.652 97.24,76.24C98.389,73.761 98.568,70.962 98.568,68.124ZM90.99,79.616C89.59,79.616 87.471,78.718 86.825,75.271C86.429,73.116 86.429,69.812 86.429,67.693C86.429,65.394 86.429,63.024 86.717,61.085C87.4,56.81 90.093,56.488 90.99,56.488C92.176,56.488 94.546,57.133 95.229,60.69C95.587,62.701 95.587,65.43 95.587,67.693C95.587,70.386 95.587,72.829 95.193,75.127C94.654,78.538 92.607,79.616 90.99,79.616" style="fill-rule:nonzero;"/>
            </g>
            <g transform="matrix(1,0,0,1,0,79.8958)">
                <path d="M166.268,68.124C166.268,65.251 166.089,62.377 164.832,59.719C163.179,56.272 160.236,55.697 158.726,55.697C156.571,55.697 153.95,56.632 152.478,59.971C151.328,62.449 151.148,65.251 151.148,68.124C151.148,70.818 151.292,74.049 152.765,76.779C154.309,79.688 156.931,80.407 158.69,80.407C160.629,80.407 163.359,79.652 164.94,76.24C166.089,73.761 166.268,70.962 166.268,68.124ZM158.69,79.616C157.29,79.616 155.171,78.718 154.525,75.271C154.129,73.116 154.129,69.812 154.129,67.693C154.129,65.394 154.129,63.024 154.417,61.085C155.1,56.81 157.793,56.488 158.69,56.488C159.876,56.488 162.246,57.133 162.929,60.69C163.287,62.701 163.287,65.43 163.287,67.693C163.287,70.386 163.287,72.829 162.893,75.127C162.354,78.538 160.307,79.616 158.69,79.616" style="fill-rule:nonzero;"/>
            </g>
            <g transform="matrix(0,-1,-1,0,231.131,330.349)">
                <path d="M172.74,56.488C173.782,56.488 174.643,57.35 174.643,58.391C174.643,59.433 173.782,60.294 172.74,60.294C171.699,60.294 170.837,59.433 170.837,58.391C170.837,57.35 171.699,56.488 172.74,56.488" style="fill-rule:nonzero;"/>
            </g>
            <g transform="matrix(1,0,0,1,0,79.8958)">
                <path d="M194.168,68.124C194.168,65.251 193.989,62.377 192.732,59.719C191.079,56.272 188.136,55.697 186.626,55.697C184.471,55.697 181.85,56.632 180.378,59.971C179.228,62.449 179.048,65.251 179.048,68.124C179.048,70.818 179.192,74.049 180.665,76.779C182.209,79.688 184.831,80.407 186.59,80.407C188.529,80.407 191.259,79.652 192.84,76.24C193.989,73.761 194.168,70.962 194.168,68.124ZM186.59,79.616C185.19,79.616 183.071,78.718 182.425,75.271C182.029,73.116 182.029,69.812 182.029,67.693C182.029,65.394 182.029,63.024 182.317,61.085C183,56.81 185.693,56.488 186.59,56.488C187.776,56.488 190.146,57.133 190.829,60.69C191.187,62.701 191.187,65.43 191.187,67.693C191.187,70.386 191.187,72.829 190.793,75.127C190.254,78.538 188.207,79.616 186.59,79.616" style="fill-rule:nonzero;"/>
            </g>
            <g transform="matrix(1,0,0,1,0,79.8958)">
                <path d="M247.968,68.124C247.968,65.251 247.789,62.377 246.532,59.719C244.879,56.272 241.936,55.697 240.426,55.697C238.271,55.697 235.65,56.632 234.178,59.971C233.028,62.449 232.848,65.251 232.848,68.124C232.848,70.818 232.992,74.049 234.465,76.779C236.009,79.688 238.631,80.407 240.39,80.407C242.329,80.407 245.059,79.652 246.64,76.24C247.789,73.761 247.968,70.962 247.968,68.124ZM240.39,79.616C238.99,79.616 236.871,78.718 236.225,75.271C235.829,73.116 235.829,69.812 235.829,67.693C235.829,65.394 235.829,63.024 236.117,61.085C236.8,56.81 239.493,56.488 240.39,56.488C241.576,56.488 243.946,57.133 244.629,60.69C244.987,62.701 244.987,65.43 244.987,67.693C244.987,70.386 244.987,72.829 244.593,75.127C244.054,78.538 242.007,79.616 240.39,79.616" style="fill-rule:nonzero;"/>
            </g>
            <g transform="matrix(0,-1,-1,0,312.831,412.049)">
                <path d="M254.44,56.488C255.482,56.488 256.343,57.35 256.343,58.391C256.343,59.433 255.482,60.294 254.44,60.294C253.399,60.294 252.537,59.433 252.537,58.391C252.537,57.35 253.399,56.488 254.44,56.488" style="fill-rule:nonzero;"/>
            </g>
            <g transform="matrix(1,0,0,1,0,79.8958)">
                <path d="M275.868,68.124C275.868,65.251 275.689,62.377 274.432,59.719C272.779,56.272 269.836,55.697 268.326,55.697C266.171,55.697 263.55,56.632 262.078,59.971C260.928,62.449 260.748,65.251 260.748,68.124C260.748,70.818 260.892,74.049 262.365,76.779C263.909,79.688 266.531,80.407 268.29,80.407C270.229,80.407 272.959,79.652 274.54,76.24C275.689,73.761 275.868,70.962 275.868,68.124ZM268.29,79.616C266.89,79.616 264.771,78.718 264.125,75.271C263.729,73.116 263.729,69.812 263.729,67.693C263.729,65.394 263.729,63.024 264.017,61.085C264.7,56.81 267.393,56.488 268.29,56.488C269.476,56.488 271.846,57.133 272.529,60.69C272.887,62.701 272.887,65.43 272.887,67.693C272.887,70.386 272.887,72.829 272.493,75.127C271.954,78.538 269.907,79.616 268.29,79.616" style="fill-rule:nonzero;"/>
            </g>
            <g transform="matrix(1,0,0,1,0,79.8958)">
                <path d="M329.668,68.124C329.668,65.251 329.489,62.377 328.232,59.719C326.579,56.272 323.636,55.697 322.126,55.697C319.971,55.697 317.35,56.632 315.878,59.971C314.728,62.449 314.548,65.251 314.548,68.124C314.548,70.818 314.692,74.049 316.165,76.779C317.709,79.688 320.331,80.407 322.09,80.407C324.029,80.407 326.759,79.652 328.34,76.24C329.489,73.761 329.668,70.962 329.668,68.124ZM322.09,79.616C320.69,79.616 318.571,78.718 317.925,75.271C317.529,73.116 317.529,69.812 317.529,67.693C317.529,65.394 317.529,63.024 317.817,61.085C318.5,56.81 321.193,56.488 322.09,56.488C323.276,56.488 325.646,57.133 326.329,60.69C326.687,62.701 326.687,65.43 326.687,67.693C326.687,70.386 326.687,72.829 326.293,75.127C325.754,78.538 323.707,79.616 322.09,79.616" style="fill-rule:nonzero;"/>
            </g>
            <g transform="matrix(0,-1,-1,0,394.531,493.749)">
                <path d="M336.14,56.488C337.182,56.488 338.043,57.35 338.043,58.391C338.043,59.433 337.182,60.294 336.14,60.294C335.099,60.294 334.237,59.433 334.237,58.391C334.237,57.35 335.099,56.488 336.14,56.488" style="fill-rule:nonzero;"/>
            </g>
            <g transform="matrix(1,0,0,1,0,79.8958)">
                <path d="M357.568,68.124C357.568,65.251 357.389,62.377 356.132,59.719C354.479,56.272 351.536,55.697 350.026,55.697C347.871,55.697 345.25,56.632 343.778,59.971C342.628,62.449 342.448,65.251 342.448,68.124C342.448,70.818 342.592,74.049 344.065,76.779C345.609,79.688 348.231,80.407 349.99,80.407C351.929,80.407 354.659,79.652 356.24,76.24C357.389,73.761 357.568,70.962 357.568,68.124ZM349.99,79.616C348.59,79.616 346.471,78.718 345.825,75.271C345.429,73.116 345.429,69.812 345.429,67.693C345.429,65.394 345.429,63.024 345.717,61.085C346.4,56.81 349.093,56.488 349.99,56.488C351.176,56.488 353.546,57.133 354.229,60.69C354.587,62.701 354.587,65.43 354.587,67.693C354.587,70.386 354.587,72.829 354.193,75.127C353.654,78.538 351.607,79.616 349.99,79.616" style="fill-rule:nonzero;"/>
            </g>
            <g transform="matrix(1,0,0,1,0,79.8958)">
                <path d="M411.368,68.124C411.368,65.251 411.189,62.377 409.932,59.719C408.279,56.272 405.336,55.697 403.826,55.697C401.671,55.697 399.05,56.632 397.578,59.971C396.428,62.449 396.248,65.251 396.248,68.124C396.248,70.818 396.392,74.049 397.865,76.779C399.409,79.688 402.031,80.407 403.79,80.407C405.729,80.407 408.459,79.652 410.04,76.24C411.189,73.761 411.368,70.962 411.368,68.124ZM403.79,79.616C402.39,79.616 400.271,78.718 399.625,75.271C399.229,73.116 399.229,69.812 399.229,67.693C399.229,65.394 399.229,63.024 399.517,61.085C400.2,56.81 402.893,56.488 403.79,56.488C404.976,56.488 407.346,57.133 408.029,60.69C408.387,62.701 408.387,65.43 408.387,67.693C408.387,70.386 408.387,72.829 407.993,75.127C407.454,78.538 405.407,79.616 403.79,79.616" style="fill-rule:nonzero;"/>
            </g>
            <g transform="matrix(0,-1,-1,0,476.131,575.349)">
                <path d="M417.74,56.488C418.782,56.488 419.643,57.35 419.643,58.391C419.643,59.433 418.782,60.294 417.74,60.294C416.699,60.294 415.837,59.433 415.837,58.391C415.837,57.35 416.699,56.488 417.74,56.488" style="fill-rule:nonzero;"/>
            </g>
            <g transform="matrix(1,0,0,1,0,79.8958)">
                <path d="M439.268,68.124C439.268,65.251 439.089,62.377 437.832,59.719C436.179,56.272 433.236,55.697 431.726,55.697C429.571,55.697 426.95,56.632 425.478,59.971C424.328,62.449 424.148,65.251 424.148,68.124C424.148,70.818 424.292,74.049 425.765,76.779C427.309,79.688 429.931,80.407 431.69,80.407C433.629,80.407 436.359,79.652 437.94,76.24C439.089,73.761 439.268,70.962 439.268,68.124ZM431.69,79.616C430.29,79.616 428.171,78.718 427.525,75.271C427.129,73.116 427.129,69.812 427.129,67.693C427.129,65.394 427.129,63.024 427.417,61.085C428.1,56.81 430.793,56.488 431.69,56.488C432.876,56.488 435.246,57.133 435.929,60.69C436.287,62.701 436.287,65.43 436.287,67.693C436.287,70.386 436.287,72.829 435.893,75.127C435.354,78.538 433.307,79.616 431.69,79.616" style="fill-rule:nonzero;"/>
            </g>
            <g transform="matrix(1,0,0,1,0,166.096)">
                <path d="M70.668,25.024C70.668,22.151 70.489,19.277 69.232,16.619C67.579,13.172 64.635,12.597 63.126,12.597C60.971,12.597 58.35,13.532 56.878,16.871C55.728,19.349 55.548,22.151 55.548,25.024C55.548,27.718 55.692,30.949 57.165,33.679C58.709,36.588 61.331,37.307 63.09,37.307C65.029,37.307 67.759,36.552 69.34,33.14C70.489,30.662 70.668,27.862 70.668,25.024ZM63.09,36.516C61.69,36.516 59.571,35.618 58.925,32.171C58.529,30.016 58.529,26.711 58.529,24.593C58.529,22.294 58.529,19.924 58.817,17.985C59.5,13.71 62.193,13.388 63.09,13.388C64.276,13.388 66.646,14.033 67.329,17.59C67.687,19.601 67.687,22.33 67.687,24.593C67.687,27.286 67.687,29.729 67.293,32.027C66.754,35.438 64.707,36.516 63.09,36.516" style="fill-rule:nonzero;"/>
            </g>
            <g transform="matrix(0,-1,-1,0,92.3314,277.749)">
                <path d="M77.04,13.388C78.082,13.388 78.943,14.251 78.943,15.291C78.943,16.333 78.082,17.194 77.04,17.194C76,17.194 75.137,16.333 75.137,15.291C75.137,14.251 76,13.388 77.04,13.388" style="fill-rule:nonzero;"/>
            </g>
            <g transform="matrix(1,0,0,1,0,166.096)">
                <path d="M98.568,25.024C98.568,22.151 98.389,19.277 97.132,16.619C95.479,13.172 92.536,12.597 91.026,12.597C88.871,12.597 86.25,13.532 84.778,16.871C83.628,19.349 83.448,22.151 83.448,25.024C83.448,27.718 83.592,30.949 85.065,33.679C86.609,36.588 89.231,37.307 90.99,37.307C92.929,37.307 95.659,36.552 97.24,33.14C98.389,30.662 98.568,27.862 98.568,25.024ZM90.99,36.516C89.59,36.516 87.471,35.618 86.825,32.171C86.429,30.016 86.429,26.711 86.429,24.593C86.429,22.294 86.429,19.924 86.717,17.985C87.4,13.71 90.093,13.388 90.99,13.388C92.176,13.388 94.546,14.033 95.229,17.59C95.587,19.601 95.587,22.33 95.587,24.593C95.587,27.286 95.587,29.729 95.193,32.027C94.654,35.438 92.607,36.516 90.99,36.516" style="fill-rule:nonzero;"/>
            </g>
            <g transform="matrix(1,0,0,1,0,166.096)">
                <path d="M166.268,25.024C166.268,22.151 166.089,19.277 164.832,16.619C163.179,13.172 160.236,12.597 158.726,12.597C156.571,12.597 153.95,13.532 152.478,16.871C151.328,19.349 151.148,22.151 151.148,25.024C151.148,27.718 151.292,30.949 152.765,33.679C154.309,36.588 156.931,37.307 158.69,37.307C160.629,37.307 163.359,36.552 164.94,33.14C166.089,30.662 166.268,27.862 166.268,25.024ZM158.69,36.516C157.29,36.516 155.171,35.618 154.525,32.171C154.129,30.016 154.129,26.711 154.129,24.593C154.129,22.294 154.129,19.924 154.417,17.985C155.1,13.71 157.793,13.388 158.69,13.388C159.876,13.388 162.246,14.033 162.929,17.59C163.287,19.601 163.287,22.33 163.287,24.593C163.287,27.286 163.287,29.729 162.893,32.027C162.354,35.438 160.307,36.516 158.69,36.516" style="fill-rule:nonzero;"/>
            </g>
            <g transform="matrix(0,-1,-1,0,188.031,373.449)">
                <path d="M172.74,13.388C173.782,13.388 174.643,14.25 174.643,15.291C174.643,16.333 173.782,17.194 172.74,17.194C171.699,17.194 170.837,16.333 170.837,15.291C170.837,14.25 171.699,13.388 172.74,13.388" style="fill-rule:nonzero;"/>
            </g>
            <g transform="matrix(1,0,0,1,0,166.096)">
                <path d="M194.168,25.024C194.168,22.151 193.989,19.277 192.732,16.619C191.079,13.172 188.136,12.597 186.626,12.597C184.471,12.597 181.85,13.532 180.378,16.871C179.228,19.349 179.048,22.151 179.048,25.024C179.048,27.718 179.192,30.949 180.665,33.679C182.209,36.588 184.831,37.307 186.59,37.307C188.529,37.307 191.259,36.552 192.84,33.14C193.989,30.662 194.168,27.862 194.168,25.024ZM186.59,36.516C185.19,36.516 183.071,35.618 182.425,32.171C182.029,30.016 182.029,26.711 182.029,24.593C182.029,22.294 182.029,19.924 182.317,17.985C183,13.71 185.693,13.388 186.59,13.388C187.776,13.388 190.146,14.033 190.829,17.59C191.187,19.601 191.187,22.33 191.187,24.593C191.187,27.286 191.187,29.729 190.793,32.027C190.254,35.438 188.207,36.516 186.59,36.516" style="fill-rule:nonzero;"/>
            </g>
            <g transform="matrix(1,0,0,1,0,166.096)">
                <path d="M247.968,25.024C247.968,22.151 247.789,19.277 246.532,16.619C244.879,13.172 241.936,12.597 240.426,12.597C238.271,12.597 235.65,13.532 234.178,16.871C233.028,19.349 232.848,22.151 232.848,25.024C232.848,27.718 232.992,30.949 234.465,33.679C236.009,36.588 238.631,37.307 240.39,37.307C242.329,37.307 245.059,36.552 246.64,33.14C247.789,30.662 247.968,27.862 247.968,25.024ZM240.39,36.516C238.99,36.516 236.871,35.618 236.225,32.171C235.829,30.016 235.829,26.711 235.829,24.593C235.829,22.294 235.829,19.924 236.117,17.985C236.8,13.71 239.493,13.388 240.39,13.388C241.576,13.388 243.946,14.033 244.629,17.59C244.987,19.601 244.987,22.33 244.987,24.593C244.987,27.286 244.987,29.729 244.593,32.027C244.054,35.438 242.007,36.516 240.39,36.516" style="fill-rule:nonzero;"/>
            </g>
            <g transform="matrix(0,-1,-1,0,269.731,455.149)">
                <path d="M254.44,13.388C255.482,13.388 256.343,14.25 256.343,15.291C256.343,16.333 255.482,17.194 254.44,17.194C253.399,17.194 252.537,16.333 252.537,15.291C252.537,14.25 253.399,13.388 254.44,13.388" style="fill-rule:nonzero;"/>
            </g>
            <g transform="matrix(1,0,0,1,0,166.096)">
                <path d="M275.868,25.024C275.868,22.151 275.689,19.277 274.432,16.619C272.779,13.172 269.836,12.597 268.326,12.597C266.171,12.597 263.55,13.532 262.078,16.871C260.928,19.349 260.748,22.151 260.748,25.024C260.748,27.718 260.892,30.949 262.365,33.679C263.909,36.588 266.531,37.307 268.29,37.307C270.229,37.307 272.959,36.552 274.54,33.14C275.689,30.662 275.868,27.862 275.868,25.024ZM268.29,36.516C266.89,36.516 264.771,35.618 264.125,32.171C263.729,30.016 263.729,26.711 263.729,24.593C263.729,22.294 263.729,19.924 264.017,17.985C264.7,13.71 267.393,13.388 268.29,13.388C269.476,13.388 271.846,14.033 272.529,17.59C272.887,19.601 272.887,22.33 272.887,24.593C272.887,27.286 272.887,29.729 272.493,32.027C271.954,35.438 269.907,36.516 268.29,36.516" style="fill-rule:nonzero;"/>
            </g>
            <g transform="matrix(1,0,0,1,0,166.096)">
                <path d="M329.668,25.024C329.668,22.151 329.489,19.277 328.232,16.619C326.579,13.172 323.636,12.597 322.126,12.597C319.971,12.597 317.35,13.532 315.878,16.871C314.728,19.349 314.548,22.151 314.548,25.024C314.548,27.718 314.692,30.949 316.165,33.679C317.709,36.588 320.331,37.307 322.09,37.307C324.029,37.307 326.759,36.552 328.34,33.14C329.489,30.662 329.668,27.862 329.668,25.024ZM322.09,36.516C320.69,36.516 318.571,35.618 317.925,32.171C317.529,30.016 317.529,26.711 317.529,24.593C317.529,22.294 317.529,19.924 317.817,17.985C318.5,13.71 321.193,13.388 322.09,13.388C323.276,13.388 325.646,14.033 326.329,17.59C326.687,19.601 326.687,22.33 326.687,24.593C326.687,27.286 326.687,29.729 326.293,32.027C325.754,35.438 323.707,36.516 322.09,36.516" style="fill-rule:nonzero;"/>
            </g>
            <g transform="matrix(0,-1,-1,0,351.431,536.849)">
                <path d="M336.14,13.388C337.182,13.388 338.043,14.25 338.043,15.291C338.043,16.333 337.182,17.194 336.14,17.194C335.099,17.194 334.237,16.333 334.237,15.291C334.237,14.25 335.099,13.388 336.14,13.388" style="fill-rule:nonzero;"/>
            </g>
            <g transform="matrix(1,0,0,1,0,166.096)">
                <path d="M357.568,25.024C357.568,22.151 357.389,19.277 356.132,16.619C354.479,13.172 351.536,12.597 350.026,12.597C347.871,12.597 345.25,13.532 343.778,16.871C342.628,19.349 342.448,22.151 342.448,25.024C342.448,27.718 342.592,30.949 344.065,33.679C345.609,36.588 348.231,37.307 349.99,37.307C351.929,37.307 354.659,36.552 356.24,33.14C357.389,30.662 357.568,27.862 357.568,25.024ZM349.99,36.516C348.59,36.516 346.471,35.618 345.825,32.171C345.429,30.016 345.429,26.711 345.429,24.593C345.429,22.294 345.429,19.924 345.717,17.985C346.4,13.71 349.093,13.388 349.99,13.388C351.176,13.388 353.546,14.033 354.229,17.59C354.587,19.601 354.587,22.33 354.587,24.593C354.587,27.286 354.587,29.729 354.193,32.027C353.654,35.438 351.607,36.516 349.99,36.516" style="fill-rule:nonzero;"/>
            </g>
            <g transform="matrix(1,0,0,1,0,166.096)">
                <path d="M411.368,25.024C411.368,22.151 411.189,19.277 409.932,16.619C408.279,13.172 405.336,12.597 403.826,12.597C401.671,12.597 399.05,13.532 397.578,16.871C396.428,19.349 396.248,22.151 396.248,25.024C396.248,27.718 396.392,30.949 397.865,33.679C399.409,36.588 402.031,37.307 403.79,37.307C405.729,37.307 408.459,36.552 410.04,33.14C411.189,30.662 411.368,27.862 411.368,25.024ZM403.79,36.516C402.39,36.516 400.271,35.618 399.625,32.171C399.229,30.016 399.229,26.711 399.229,24.593C399.229,22.294 399.229,19.924 399.517,17.985C400.2,13.71 402.893,13.388 403.79,13.388C404.976,13.388 407.346,14.033 408.029,17.59C408.387,19.601 408.387,22.33 408.387,24.593C408.387,27.286 408.387,29.729 407.993,32.027C407.454,35.438 405.407,36.516 403.79,36.516" style="fill-rule:nonzero;"/>
            </g>
            <g transform="matrix(0,-1,-1,0,433.031,618.449)">
                <path d="M417.74,13.388C418.782,13.388 419.643,14.25 419.643,15.291C419.643,16.333 418.782,17.194 417.74,17.194C416.699,17.194 415.837,16.333 415.837,15.291C415.837,14.25 416.699,13.388 417.74,13.388" style="fill-rule:nonzero;"/>
            </g>
            <g transform="matrix(1,0,0,1,0,166.096)">
                <path d="M439.268,25.024C439.268,22.151 439.089,19.277 437.832,16.619C436.179,13.172 433.236,12.597 431.726,12.597C429.571,12.597 426.95,13.532 425.478,16.871C424.328,19.349 424.148,22.151 424.148,25.024C424.148,27.718 424.292,30.949 425.765,33.679C427.309,36.588 429.931,37.307 431.69,37.307C433.629,37.307 436.359,36.552 437.94,33.14C439.089,30.662 439.268,27.862 439.268,25.024ZM431.69,36.516C430.29,36.516 428.171,35.618 427.525,32.171C427.129,30.016 427.129,26.711 427.129,24.593C427.129,22.294 427.129,19.924 427.417,17.985C428.1,13.71 430.793,13.388 431.69,13.388C432.876,13.388 435.246,14.033 435.929,17.59C436.287,19.601 436.287,22.33 436.287,24.593C436.287,27.286 436.287,29.729 435.893,32.027C435.354,35.438 433.307,36.516 431.69,36.516" style="fill-rule:nonzero;"/>
            </g>
            <g transform="matrix(1,0,0,1,0,-150.407)">
                <path d="M479.586,213.891C479.586,191.947 475.671,179.091 474.557,175.463C472.115,167.491 468.129,159.086 462.132,151.688C461.593,151.041 461.45,150.863 461.306,150.791C461.234,150.755 461.198,150.719 460.623,150.719C460.084,150.719 459.798,150.719 459.798,151.077C459.798,151.149 459.798,151.221 460.264,151.867C472.762,169.322 475.564,190.871 475.6,215.185C475.6,215.688 475.815,215.688 476.606,215.688L478.581,215.688C479.334,215.688 479.55,215.688 479.586,215.292L479.586,213.891" style="fill-rule:nonzero;"/>
            </g>
            <g transform="matrix(1,0,0,1,0,-64.627)">
                <path d="M479.586,130.15C479.586,129.216 479.55,129.18 478.581,129.18L476.606,129.18C475.636,129.18 475.6,129.216 475.6,130.15L475.6,150.476C475.6,151.411 475.636,151.447 476.606,151.447L478.581,151.447C479.55,151.447 479.586,151.411 479.586,150.476L479.586,130.15" style="fill-rule:nonzero;"/>
            </g>
            <g transform="matrix(1,0,0,1,0,-21.627)">
                <path d="M479.586,108.65C479.586,107.716 479.55,107.68 478.581,107.68L476.606,107.68C475.636,107.68 475.6,107.716 475.6,108.65L475.6,128.976C475.6,129.911 475.636,129.947 476.606,129.947L478.581,129.947C479.55,129.947 479.586,129.911 479.586,128.976L479.586,108.65" style="fill-rule:nonzero;"/>
            </g>
            <g transform="matrix(1,0,0,1,0,21.3728)">
                <path d="M479.586,87.15C479.586,86.216 479.55,86.18 478.581,86.18L476.606,86.18C475.636,86.18 475.6,86.216 475.6,87.15L475.6,107.477C475.6,108.411 475.636,108.447 476.606,108.447L478.581,108.447C479.55,108.447 479.586,108.411 479.586,107.477L479.586,87.15" style="fill-rule:nonzero;"/>
            </g>
            <g transform="matrix(1,0,0,1,0,64.3724)">
                <path d="M479.586,65.651C479.586,64.716 479.55,64.68 478.581,64.68L476.606,64.68C475.636,64.68 475.6,64.716 475.6,65.651L475.6,85.977C475.6,86.912 475.636,86.947 476.606,86.947L478.581,86.947C479.55,86.947 479.586,86.912 479.586,85.977L479.586,65.651" style="fill-rule:nonzero;"/>
            </g>
            <g transform="matrix(1,0,0,1,0,150.202)">
                <path d="M479.586,0.81C479.55,0.415 479.334,0.415 478.581,0.415L476.606,0.415C475.815,0.415 475.6,0.415 475.6,0.918C475.6,4.616 475.564,13.163 474.629,22.107C472.69,40.674 467.914,53.532 460.048,64.557C459.798,64.88 459.798,64.952 459.798,65.024C459.798,65.383 460.084,65.383 460.623,65.383C461.198,65.383 461.27,65.383 461.342,65.311C461.486,65.204 466.046,59.96 469.673,52.741C474.414,43.26 477.395,32.377 478.725,19.305C478.832,18.191 479.586,10.721 479.586,2.21L479.586,0.81" style="fill-rule:nonzero;"/>
            </g>
            <g transform="matrix(2e-06,0,0,2e-06,239.5,108)">
                <path d="M0,122C60,14 97,6 101,2C105,6 32,7 104,25C49,27 98,25 115,21C54,70 61,88 43,57C99,70 90,34 108,68C52,18 49,43 50,72C99,15 75,67 118,34C86,43 83,22 101,48C56,61 34,60 65,57C65,55 51,71 105,23C120,36 74,44 98,2C77,2 69,42 86,5C67,70 84,3 70,23C113,40 105,65 85,49C70,57 53,53 117,3C70,53 106,73 71,69C99,53 121,14 53,15C79,47 111,66 106,8C122,55 90,35 118,44C54,36 80,33 115,37C114,20 98,39 83,3C57,52 113,52 102,79C70,16 102,79 83,45C57,73 107,16 49,57C48,11 111,16 84,67C76,66 57,44 54,45C55,32 108,2 108,55C108,10 77,41 104,79C101,75 55,56 52,33C79,50 106,72 113,42C54,74 43,21 80,12C118,79 111,4 72,1C97,51 68,38 51,57C106,11 105,73 83,14C90,18 82,2 67,74C112,9 54,47 78,53C66,25 80,45 65,53C56,17 66,23 78,11C43,35 88,6 68,67C43,56 115,38 76,36C53,67 106,47 89,48C76,3 117,32 97,2C70,56 121,22 78,51C51,23 77,57 85,2C116,14 103,53 99,68C107,46 98,19 120,20C108,33 86,33 111,1C122,21 102,72 113,50C74,34 49,46 105,68C65,22 51,46 56,0C57,11 43,57 47,2C47,49 81,45 43,9C50,10 105,40 56,3C87,79 109,0 97,25C122,6 105,57 55,10C79,3 73,15 49,39C111,38 100,6 47,51C75,0 86,43 81,48C97,56 83,47 87,0C115,43 103,3 119,12C55,14 67,37 81,15C70,32 90,67 109,52C106,49 115,14 110,66C80,33 85,23 48,38C115,48 78,17 77,69C43,39 118,12 72,47C106,45 97,10 99,37C115,16 51,25 104,75C90,18 81,66 115,34C97,36 82,55 52,1C52,24 105,3 117,65C53,25 118,45 115,24C53,2 105,20 84,57C113,10 115,2 120,56C105,79 49,52 99,25C52,11 112,12 81,65C98,54 113,38 66,19C83,9 108,39 78,23C71,43 110,21 83,7C87,55 71,1 55,41C102,33 109,68 97,74C75,70 87,75 73,79C71,34 84,25 52,33C100,72 53,79 120,16C115,71 116,25 116,25C78,51 88,10 78,16C48,17 73,18 43,37C121,68 53,55 118,10C107,38 52,40 72,4C77,5 118,55 118,4C117,66 47,65 83,75C43,50 102,67 48,44C57,24 48,9 53,2C88,69 67,75 55,42C87,65 73,9 48,36C65,61 60,75 108,25C116,21 120,17 116,60L0,122Z" style="fill:none;fill-rule:nonzero;stroke:black;stroke-opacity:0;stroke-width:305144px;stroke-linejoin:miter;"/>
            </g>
        </g>
    </g>
</svg>
